<svg version="1.1" xmlns="http://www.w3.org/2000/svg" viewBox="0 0 1464.4970852850095 281.09036615379136" width="2928.994170570019" height="562.1807323075827">
  <!-- svg-source:excalidraw -->
  
  <defs>
    <style class="style-fonts">
      @font-face {
        font-family: "Virgil";
        src: url("https://file%2B.vscode-resource.vscode-cdn.net/c%3A/Users/pheon/.vscode/extensions/pomdtr.excalidraw-editor-3.7.4/public//dist/excalidraw-assets/Virgil.woff2");
      }
      @font-face {
        font-family: "Cascadia";
        src: url("https://file%2B.vscode-resource.vscode-cdn.net/c%3A/Users/pheon/.vscode/extensions/pomdtr.excalidraw-editor-3.7.4/public//dist/excalidraw-assets/Cascadia.woff2");
      }
      @font-face {
        font-family: "Assistant";
        src: url("https://file%2B.vscode-resource.vscode-cdn.net/c%3A/Users/pheon/.vscode/extensions/pomdtr.excalidraw-editor-3.7.4/public//dist/excalidraw-assets/Assistant-Regular.woff2");
      }
    </style>
    
  </defs>
  <rect x="0" y="0" width="1464.4970852850095" height="281.09036615379136" fill="#ffffff"></rect><g stroke-linecap="round" transform="translate(539.3002534235964 192.09036615379136) rotate(0 72 26)"><path d="M13 0 C38.4 -0.56, 59.88 -0.63, 131 0 M13 0 C60.18 -0.88, 106.81 -0.09, 131 0 M131 0 C138.39 0.81, 143.35 6.22, 144 13 M131 0 C140.32 -0.93, 144.95 4.39, 144 13 M144 13 C145.61 20.88, 143.03 32.89, 144 39 M144 13 C142.94 20.01, 143.18 27.9, 144 39 M144 39 C144.67 46.34, 141.46 53.93, 131 52 M144 39 C145.66 46.74, 139.82 50.3, 131 52 M131 52 C96.46 53.35, 58.75 51.14, 13 52 M131 52 C91.51 51.59, 51.42 52.85, 13 52 M13 52 C4.72 53.95, 0.02 45.99, 0 39 M13 52 C2.12 52.14, -0.7 46.36, 0 39 M0 39 C-0.66 30.95, 1.16 25.28, 0 13 M0 39 C0.41 33.35, 0 27.53, 0 13 M0 13 C-0.21 6.18, 2.7 -1.62, 13 0 M0 13 C0.69 5.5, 4.35 1.58, 13 0" stroke="#1e1e1e" stroke-width="2" fill="none"></path></g><g transform="translate(550.6402573908815 205.59036615379136) rotate(0 60.659996032714844 12.5)"><text x="60.659996032714844" y="0" font-family="Segoe UI Emoji" font-size="20px" fill="#1e1e1e" text-anchor="middle" style="white-space: pre;" direction="ltr" dominant-baseline="text-before-edge">Riddle Client</text></g><g stroke-linecap="round" transform="translate(193.38785708336633 142.9005840029032) rotate(0 72 26)"><path d="M13 0 C43.38 0.61, 75.09 1.66, 131 0 M13 0 C59.77 -0.78, 106.96 0.7, 131 0 M131 0 C140.66 -1.96, 143.95 2.95, 144 13 M131 0 C138.63 1.74, 145.2 5.78, 144 13 M144 13 C143.76 22.33, 144 31.28, 144 39 M144 13 C144.07 21.49, 144 28.51, 144 39 M144 39 C144.76 48.3, 140.6 51.69, 131 52 M144 39 C144.18 49.36, 138.28 52.55, 131 52 M131 52 C86.25 50.68, 40.29 50.53, 13 52 M131 52 C84.09 51.83, 36.55 51.11, 13 52 M13 52 C4.75 52.91, -0.24 47.56, 0 39 M13 52 C6.26 51.11, -1.19 49.62, 0 39 M0 39 C0.93 33.93, -0.98 25.33, 0 13 M0 39 C-0.27 33.32, -0.83 26.22, 0 13 M0 13 C1.5 2.68, 3.43 -0.5, 13 0 M0 13 C-1.12 5.85, 3.43 1.37, 13 0" stroke="#1e1e1e" stroke-width="2" fill="none"></path></g><g transform="translate(212.62785876183312 156.4005840029032) rotate(0 52.7599983215332 12.5)"><text x="52.7599983215332" y="0" font-family="Segoe UI Emoji" font-size="20px" fill="#1e1e1e" text-anchor="middle" style="white-space: pre;" direction="ltr" dominant-baseline="text-before-edge">Fish Proxy</text></g><g stroke-linecap="round" transform="translate(920.5773241932652 183) rotate(0 82 32)"><path d="M16 0 C66.57 -1.17, 116.84 -0.41, 148 0 M16 0 C58.76 -0.86, 103.32 -0.69, 148 0 M148 0 C157.08 -1.5, 165.76 4.02, 164 16 M148 0 C157.87 0.9, 165.9 5.31, 164 16 M164 16 C164.67 27.74, 165.46 37.46, 164 48 M164 16 C165.16 27.85, 163.44 39.29, 164 48 M164 48 C164.99 60.41, 156.86 63.82, 148 64 M164 48 C165.68 56.46, 157.94 63.35, 148 64 M148 64 C96.53 64.4, 43.58 61.72, 16 64 M148 64 C116.41 63.99, 86.17 63.07, 16 64 M16 64 C3.67 62.32, 0.01 57.33, 0 48 M16 64 C4.2 63.96, 0.72 60.01, 0 48 M0 48 C0.61 35.51, 1.07 22.5, 0 16 M0 48 C0.43 35.44, -0.5 25.32, 0 16 M0 16 C-1.46 6.35, 4.02 -1.4, 16 0 M0 16 C-1.83 7.44, 5.76 0.01, 16 0" stroke="#1e1e1e" stroke-width="2" fill="none"></path></g><g transform="translate(954.0873263294957 190) rotate(0 48.48999786376953 25)"><text x="48.48999786376953" y="0" font-family="Segoe UI Emoji" font-size="20px" fill="#1e1e1e" text-anchor="middle" style="white-space: pre;" direction="ltr" dominant-baseline="text-before-edge">Riddle</text><text x="48.48999786376953" y="25" font-family="Segoe UI Emoji" font-size="20px" fill="#1e1e1e" text-anchor="middle" style="white-space: pre;" direction="ltr" dominant-baseline="text-before-edge">Processor</text></g><g stroke-linecap="round" transform="translate(165.234589346689 121.47229292303302) rotate(0 98.5328320384537 50)"><path d="M25 0 C74.1 -0.32, 118.38 0.31, 172.07 0 M25 0 C58.8 -0.74, 93.56 -1.19, 172.07 0 M172.07 0 C188.14 -0.38, 196.84 8.97, 197.07 25 M172.07 0 C187.55 2.12, 198.72 8.05, 197.07 25 M197.07 25 C198.13 43.79, 198.21 62.71, 197.07 75 M197.07 25 C197.51 37.22, 196.75 49.54, 197.07 75 M197.07 75 C196.89 90.51, 186.8 98.95, 172.07 100 M197.07 75 C199.1 91.43, 189.03 100.87, 172.07 100 M172.07 100 C122.57 100.78, 70.46 99.04, 25 100 M172.07 100 C113.44 98.55, 55.93 99.13, 25 100 M25 100 C7.06 101.51, -1.79 89.68, 0 75 M25 100 C9.3 100.78, -0.57 91.71, 0 75 M0 75 C-0.41 61.81, -0.18 51.41, 0 25 M0 75 C0.56 59.02, -0.14 42.1, 0 25 M0 25 C-0.05 9.53, 7.66 0.12, 25 0 M0 25 C-2.15 9.4, 10.05 -0.43, 25 0" stroke="#1e1e1e" stroke-width="2" fill="none"></path></g><g transform="translate(197.30025342359642 98.09036615379136) rotate(0 72.4658203125 12.5)"><text x="0" y="0" font-family="Segoe UI Emoji" font-size="20px" fill="#1e1e1e" text-anchor="start" style="white-space: pre;" direction="ltr" dominant-baseline="text-before-edge">Wroom32 board</text></g><g stroke-linecap="round" transform="translate(469.3002534235964 56.090366153791365) rotate(0 148.5 107.5)"><path d="M32 0 C102.69 -0.35, 175.57 1.41, 265 0 M32 0 C94.69 -2.03, 158.31 -1.6, 265 0 M265 0 C287.22 -1.9, 298.44 10.95, 297 32 M265 0 C286.17 -2.22, 296.37 10.99, 297 32 M297 32 C295.35 89.81, 298.71 146.59, 297 183 M297 32 C297.3 76.24, 297.82 122.51, 297 183 M297 183 C298.76 206.28, 284.68 215.74, 265 215 M297 183 C296.22 203.8, 287.39 213.79, 265 215 M265 215 C200.64 215.56, 135.66 215.4, 32 215 M265 215 C174.9 213.93, 84.06 214.61, 32 215 M32 215 C10.99 215.2, 0.38 205.11, 0 183 M32 215 C11.87 213.79, 0.25 205.95, 0 183 M0 183 C-0.52 139.47, 0.68 94.99, 0 32 M0 183 C0.83 123.45, 0.81 64.08, 0 32 M0 32 C-1.3 10.82, 11.12 1.84, 32 0 M0 32 C-1.88 9.88, 9.08 1.93, 32 0" stroke="#1e1e1e" stroke-width="2" fill="none"></path></g><g stroke-linecap="round" transform="translate(490.3002534235964 70.09036615379136) rotate(0 50 39.5)"><path d="M19.75 0 C37.14 0.76, 56.94 1.28, 80.25 0 M19.75 0 C32.44 -0.57, 45.86 -0.12, 80.25 0 M80.25 0 C92.77 1.46, 99.52 8.13, 100 19.75 M80.25 0 C95.13 -1.47, 101.86 5.8, 100 19.75 M100 19.75 C98.35 29.95, 98.65 42.79, 100 59.25 M100 19.75 C99.85 31.27, 99.53 44.76, 100 59.25 M100 59.25 C98.8 73.89, 94.43 80.37, 80.25 79 M100 59.25 C101.48 71.8, 94.27 79.1, 80.25 79 M80.25 79 C65.51 77.43, 52.03 79.74, 19.75 79 M80.25 79 C60.16 78.77, 42.34 79.36, 19.75 79 M19.75 79 C7.5 77.56, -0.35 71.06, 0 59.25 M19.75 79 C7.57 80.65, 0.89 72.38, 0 59.25 M0 59.25 C1.65 48.57, 2.16 40.08, 0 19.75 M0 59.25 C-0.53 47.33, 0.01 35.85, 0 19.75 M0 19.75 C0.11 6.65, 7.54 0.09, 19.75 0 M0 19.75 C0.37 4.65, 8.69 1.34, 19.75 0" stroke="#1e1e1e" stroke-width="2" fill="none"></path></g><g transform="translate(506.77025464429954 84.59036615379136) rotate(0 33.529998779296875 25)"><text x="33.529998779296875" y="0" font-family="Segoe UI Emoji" font-size="20px" fill="#1e1e1e" text-anchor="middle" style="white-space: pre;" direction="ltr" dominant-baseline="text-before-edge">RPI</text><text x="33.529998779296875" y="25" font-family="Segoe UI Emoji" font-size="20px" fill="#1e1e1e" text-anchor="middle" style="white-space: pre;" direction="ltr" dominant-baseline="text-before-edge">Camera</text></g><g stroke-linecap="round" transform="translate(605.3002534235964 71.09036615379136) rotate(0 68.5 39)"><path d="M19.5 0 C51.75 -0.2, 86.63 1.15, 117.5 0 M19.5 0 C58.06 1.07, 97.3 1.74, 117.5 0 M117.5 0 C130.39 0.57, 137.91 6.95, 137 19.5 M117.5 0 C131.97 0.3, 138.68 4.72, 137 19.5 M137 19.5 C137.51 31.83, 137.9 45.01, 137 58.5 M137 19.5 C136.7 28.15, 137.21 38.54, 137 58.5 M137 58.5 C135.99 73.13, 130.59 79.09, 117.5 78 M137 58.5 C135.66 69.52, 129.32 77.03, 117.5 78 M117.5 78 C78.26 77.76, 42.66 78.01, 19.5 78 M117.5 78 C80 77.01, 41.99 77.3, 19.5 78 M19.5 78 C6.67 77.29, -0.16 72.43, 0 58.5 M19.5 78 C5.47 75.73, -0.76 70.02, 0 58.5 M0 58.5 C-0.87 45.45, 1.02 32.37, 0 19.5 M0 58.5 C-0.71 44.48, -1.12 29.12, 0 19.5 M0 19.5 C-1.5 7.48, 7.34 0.28, 19.5 0 M0 19.5 C-0.15 6.78, 5.19 -0.14, 19.5 0" stroke="#1e1e1e" stroke-width="2" fill="none"></path></g><g transform="translate(620.8702493037233 85.09036615379136) rotate(0 52.93000411987305 25)"><text x="52.93000411987305" y="0" font-family="Segoe UI Emoji" font-size="20px" fill="#1e1e1e" text-anchor="middle" style="white-space: pre;" direction="ltr" dominant-baseline="text-before-edge">RPI</text><text x="52.93000411987305" y="25" font-family="Segoe UI Emoji" font-size="20px" fill="#1e1e1e" text-anchor="middle" style="white-space: pre;" direction="ltr" dominant-baseline="text-before-edge">Microphone</text></g><g transform="translate(535.3002534235964 26.090366153791365) rotate(0 69.501953125 12.5)"><text x="0" y="0" font-family="Segoe UI Emoji" font-size="20px" fill="#1e1e1e" text-anchor="start" style="white-space: pre;" direction="ltr" dominant-baseline="text-before-edge">Raspberry PI 4b</text></g><g stroke-linecap="round"><g transform="translate(525.3002534235964 220.09036615379136) rotate(0 -95.31283564877526 -26.2606173588985)"><path d="M0.58 0.89 C-30.98 -7.67, -158.78 -43.67, -190.45 -52.5 M-0.57 0.31 C-32.19 -7.95, -159.81 -41.87, -191.31 -50.95" stroke="#1e1e1e" stroke-width="2" fill="none"></path></g><g transform="translate(525.3002534235964 220.09036615379136) rotate(0 -95.31283564877526 -26.2606173588985)"><path d="M-161.41 -53.36 C-166.32 -52.42, -174.13 -50.2, -191.31 -50.95 M-161.41 -53.36 C-171.5 -51.93, -182.17 -50.91, -191.31 -50.95" stroke="#1e1e1e" stroke-width="2" fill="none"></path></g><g transform="translate(525.3002534235964 220.09036615379136) rotate(0 -95.31283564877526 -26.2606173588985)"><path d="M-166.85 -33.58 C-170.42 -36.87, -177.06 -38.87, -191.31 -50.95 M-166.85 -33.58 C-175.01 -38.84, -183.84 -44.52, -191.31 -50.95" stroke="#1e1e1e" stroke-width="2" fill="none"></path></g></g><mask></mask><g transform="translate(402.3002534235964 165.09036615379136) rotate(0 14.2431640625 12.5)"><text x="0" y="0" font-family="Segoe UI Emoji" font-size="20px" fill="#1e1e1e" text-anchor="start" style="white-space: pre;" direction="ltr" dominant-baseline="text-before-edge">I2C</text></g><g stroke-linecap="round"><g transform="translate(577.3002534235964 181.09036615379136) rotate(0 -11 -13)"><path d="M0.2 0.98 C-3.36 -3.5, -18.49 -21.52, -22.29 -26.13 M-1.15 0.45 C-4.82 -3.91, -19.63 -20.3, -23.38 -24.66" stroke="#1e1e1e" stroke-width="2" fill="none"></path></g><g transform="translate(577.3002534235964 181.09036615379136) rotate(0 -11 -13)"><path d="M-8.42 -16.53 C-10.47 -18.75, -15.43 -21.01, -23.38 -24.66 M-8.42 -16.53 C-12.43 -19.46, -16.28 -21.38, -23.38 -24.66" stroke="#1e1e1e" stroke-width="2" fill="none"></path></g><g transform="translate(577.3002534235964 181.09036615379136) rotate(0 -11 -13)"><path d="M-17.15 -8.81 C-17.27 -12.8, -20.26 -16.81, -23.38 -24.66 M-17.15 -8.81 C-19.01 -13.56, -20.71 -17.38, -23.38 -24.66" stroke="#1e1e1e" stroke-width="2" fill="none"></path></g></g><mask></mask><g stroke-linecap="round"><g transform="translate(652.3002534235964 185.09036615379136) rotate(0 7.5 -16)"><path d="M1.16 1.06 C3.52 -4.22, 13.03 -26.82, 15.3 -32.4 M0.32 0.58 C2.44 -4.48, 12.25 -25.75, 14.51 -31.07" stroke="#1e1e1e" stroke-width="2" fill="none"></path></g><g transform="translate(652.3002534235964 185.09036615379136) rotate(0 7.5 -16)"><path d="M13.28 -13.44 C15.43 -20.01, 13.77 -27.77, 14.51 -31.07 M13.28 -13.44 C12.9 -17.95, 13.38 -22.49, 14.51 -31.07" stroke="#1e1e1e" stroke-width="2" fill="none"></path></g><g transform="translate(652.3002534235964 185.09036615379136) rotate(0 7.5 -16)"><path d="M2.24 -18.36 C8.75 -23.08, 11.47 -28.89, 14.51 -31.07 M2.24 -18.36 C4.74 -21.52, 8.14 -24.76, 14.51 -31.07" stroke="#1e1e1e" stroke-width="2" fill="none"></path></g></g><mask></mask><g stroke-linecap="round" transform="translate(847.5773241932652 36) rotate(0 150.5 117.5)"><path d="M32 0 C88.03 0.54, 148.26 0.1, 269 0 M32 0 C121.86 -1.56, 212.08 -1.33, 269 0 M269 0 C288.91 0.04, 300.32 11.45, 301 32 M269 0 C292.19 0.29, 301.31 9.07, 301 32 M301 32 C301.76 86.91, 302.51 140.74, 301 203 M301 32 C301.58 71.2, 302.15 111.42, 301 203 M301 203 C300.09 222.54, 292.1 233.44, 269 235 M301 203 C301.76 225.78, 288.36 234.84, 269 235 M269 235 C178.59 237.6, 90.84 237.29, 32 235 M269 235 C206.08 236.63, 144.08 236.57, 32 235 M32 235 C11.49 234.02, 1.89 223.07, 0 203 M32 235 C12.79 234.8, -0.51 223.01, 0 203 M0 203 C0.3 167.55, -0.18 129.48, 0 32 M0 203 C1.06 160.8, 0.11 117.96, 0 32 M0 32 C1.23 11.71, 11.41 1.65, 32 0 M0 32 C-0.75 11.55, 9.47 -1.58, 32 0" stroke="#1e1e1e" stroke-width="2" fill="none"></path></g><g transform="translate(1046.5773241932652 10) rotate(0 35.5322265625 12.5)"><text x="0" y="0" font-family="Segoe UI Emoji" font-size="20px" fill="#1e1e1e" text-anchor="start" style="white-space: pre;" direction="ltr" dominant-baseline="text-before-edge">Win x64</text></g><g stroke-linecap="round" transform="translate(878.5773241932652 54) rotate(0 36.5 31)"><path d="M15.5 0 C25.84 1.64, 36.09 0.01, 57.5 0 M15.5 0 C26.65 -0.22, 37.61 0.1, 57.5 0 M57.5 0 C66.56 0.85, 73.99 6.38, 73 15.5 M57.5 0 C65.87 -0.5, 74.88 5.1, 73 15.5 M73 15.5 C73.43 27.86, 71.84 37.38, 73 46.5 M73 15.5 C72.54 23.43, 73.25 31.47, 73 46.5 M73 46.5 C71.37 56.76, 67.19 62.66, 57.5 62 M73 46.5 C73.71 56.09, 66.1 63.67, 57.5 62 M57.5 62 C47.88 62.96, 38.4 62.39, 15.5 62 M57.5 62 C46.93 62.73, 39.23 61.29, 15.5 62 M15.5 62 C6.77 61.42, -0.54 55.23, 0 46.5 M15.5 62 C5.98 60.11, -0.38 57.37, 0 46.5 M0 46.5 C1.03 38.18, -0.91 29.05, 0 15.5 M0 46.5 C0.35 40, -0.73 32.89, 0 15.5 M0 15.5 C-0.41 6.54, 5.87 -0.78, 15.5 0 M0 15.5 C-0.33 4.67, 4.76 -0.43, 15.5 0" stroke="#1e1e1e" stroke-width="2" fill="none"></path></g><g transform="translate(891.7173254902623 72.5) rotate(0 23.35999870300293 12.5)"><text x="23.35999870300293" y="0" font-family="Segoe UI Emoji" font-size="20px" fill="#1e1e1e" text-anchor="middle" style="white-space: pre;" direction="ltr" dominant-baseline="text-before-edge">TTS</text></g><g stroke-linecap="round" transform="translate(989.0773241932652 47) rotate(0 74 37.5)"><path d="M18.75 0 C45.22 2.96, 67.59 2.67, 129.25 0 M18.75 0 C49.08 0.07, 78.53 1.12, 129.25 0 M129.25 0 C141.74 -1.26, 148.82 7.08, 148 18.75 M129.25 0 C142.86 -1.27, 149.29 4.37, 148 18.75 M148 18.75 C148.67 28.62, 147.97 41, 148 56.25 M148 18.75 C147.99 32.36, 147.95 46.22, 148 56.25 M148 56.25 C146.89 69.12, 141.16 76.36, 129.25 75 M148 56.25 C149.03 70.59, 142.85 73.04, 129.25 75 M129.25 75 C88.52 76.91, 47.67 76.77, 18.75 75 M129.25 75 C89.54 76.25, 47.82 75.94, 18.75 75 M18.75 75 C5.8 74.66, 1.55 69.1, 0 56.25 M18.75 75 C6.12 75.85, 2.07 68.92, 0 56.25 M0 56.25 C1.55 46.73, -0.36 39.03, 0 18.75 M0 56.25 C0.03 44.75, 0.42 33.81, 0 18.75 M0 18.75 C-1.82 6.04, 4.55 -0.87, 18.75 0 M0 18.75 C1.61 5.37, 5.15 2.1, 18.75 0" stroke="#1e1e1e" stroke-width="2" fill="none"></path></g><g transform="translate(1026.817325871732 59.5) rotate(0 36.2599983215332 25)"><text x="36.2599983215332" y="0" font-family="Segoe UI Emoji" font-size="20px" fill="#1e1e1e" text-anchor="middle" style="white-space: pre;" direction="ltr" dominant-baseline="text-before-edge">Faster</text><text x="36.2599983215332" y="25" font-family="Segoe UI Emoji" font-size="20px" fill="#1e1e1e" text-anchor="middle" style="white-space: pre;" direction="ltr" dominant-baseline="text-before-edge">Whisper</text></g><g stroke-linecap="round" transform="translate(1280.4970852850095 100.48174279289464) rotate(0 87 41.5)"><path d="M20.75 0 C72.11 0.45, 125.56 -0.77, 153.25 0 M20.75 0 C58.22 1.78, 97.49 1.86, 153.25 0 M153.25 0 C165.97 1.27, 172.77 7.38, 174 20.75 M153.25 0 C166.91 -1.83, 173.39 8.66, 174 20.75 M174 20.75 C175.5 34.36, 174.8 51.54, 174 62.25 M174 20.75 C174.83 34.04, 175.06 47.39, 174 62.25 M174 62.25 C172.4 75.61, 167.24 82.19, 153.25 83 M174 62.25 C172.6 74.14, 165.74 85.14, 153.25 83 M153.25 83 C111.17 80.92, 69.35 83.67, 20.75 83 M153.25 83 C108.78 82.94, 66.27 83.41, 20.75 83 M20.75 83 C8.01 84.22, 0.91 74.42, 0 62.25 M20.75 83 C4.9 82.11, 1.39 76.21, 0 62.25 M0 62.25 C-1.43 47.55, 0.27 37.21, 0 20.75 M0 62.25 C0.58 47.09, 0.57 34.42, 0 20.75 M0 20.75 C-0.98 7.74, 6.08 -0.18, 20.75 0 M0 20.75 C-0.11 7.01, 6 -0.29, 20.75 0" stroke="#1e1e1e" stroke-width="2" fill="none"></path></g><g transform="translate(1316.897082996191 129.48174279289464) rotate(0 50.60000228881836 12.5)"><text x="50.60000228881836" y="0" font-family="Segoe UI Emoji" font-size="20px" fill="#1e1e1e" text-anchor="middle" style="white-space: pre;" direction="ltr" dominant-baseline="text-before-edge">Chat GPT</text></g><g stroke-linecap="round"><g transform="translate(969.679502684384 174.54740686980227) rotate(0 -22.605860866875332 -24.98542516865163)"><path d="M0.94 0.87 C-6.81 -7.16, -38.63 -40.7, -46.18 -49.03 M-0.03 0.28 C-7.44 -8, -36.53 -42.11, -43.98 -50.66" stroke="#1e1e1e" stroke-width="2" fill="none"></path></g><g transform="translate(969.679502684384 174.54740686980227) rotate(0 -22.605860866875332 -24.98542516865163)"><path d="M-17.81 -36 C-24.75 -42.17, -33.13 -43.95, -43.98 -50.66 M-17.81 -36 C-27.05 -42.04, -36.35 -45.92, -43.98 -50.66" stroke="#1e1e1e" stroke-width="2" fill="none"></path></g><g transform="translate(969.679502684384 174.54740686980227) rotate(0 -22.605860866875332 -24.98542516865163)"><path d="M-33.36 -22.61 C-35.16 -33.24, -38.49 -39.38, -43.98 -50.66 M-33.36 -22.61 C-36.73 -33.7, -40.3 -42.52, -43.98 -50.66" stroke="#1e1e1e" stroke-width="2" fill="none"></path></g></g><mask></mask><g stroke-linecap="round"><g transform="translate(1041.0664317376743 178.11675332246682) rotate(0 9.518257207105307 -24.98542516865163)"><path d="M-0.28 1.06 C2.67 -7.35, 14.63 -42.68, 17.94 -51.16 M1.78 0.57 C5.06 -7.67, 17.18 -42.07, 20.08 -50.25" stroke="#1e1e1e" stroke-width="2" fill="none"></path></g><g transform="translate(1041.0664317376743 178.11675332246682) rotate(0 9.518257207105307 -24.98542516865163)"><path d="M20.32 -23.51 C22.17 -33.88, 18.35 -39.61, 20.08 -50.25 M20.32 -23.51 C19.16 -32.59, 20.24 -39.17, 20.08 -50.25" stroke="#1e1e1e" stroke-width="2" fill="none"></path></g><g transform="translate(1041.0664317376743 178.11675332246682) rotate(0 9.518257207105307 -24.98542516865163)"><path d="M3.08 -29.62 C10.4 -37.99, 12.09 -41.77, 20.08 -50.25 M3.08 -29.62 C7.28 -36.8, 13.7 -41.5, 20.08 -50.25" stroke="#1e1e1e" stroke-width="2" fill="none"></path></g></g><mask></mask><g stroke-linecap="round"><g transform="translate(1087.4679356223123 210.24087139644746) rotate(0 93.9927899201657 -33.90879130031291)"><path d="M0.22 0.58 C31.78 -10.47, 157.16 -55.88, 188.45 -67.14 M-1.12 -0.16 C30.39 -11.48, 156.37 -57.46, 187.74 -68.91" stroke="#1e1e1e" stroke-width="2" fill="none"></path></g><g transform="translate(1087.4679356223123 210.24087139644746) rotate(0 93.9927899201657 -33.90879130031291)"><path d="M164.77 -49.61 C171.09 -53.26, 176.46 -58.51, 187.74 -68.91 M164.77 -49.61 C172.58 -56.72, 181.82 -63.8, 187.74 -68.91" stroke="#1e1e1e" stroke-width="2" fill="none"></path></g><g transform="translate(1087.4679356223123 210.24087139644746) rotate(0 93.9927899201657 -33.90879130031291)"><path d="M157.74 -68.88 C165.51 -68.18, 172.48 -69.06, 187.74 -68.91 M157.74 -68.88 C168.04 -68.85, 179.9 -68.77, 187.74 -68.91" stroke="#1e1e1e" stroke-width="2" fill="none"></path></g></g><mask></mask><g stroke-linecap="round"><g transform="translate(685.7962617044805 215.95167324846273) rotate(0 113.38684886863558 -0.6579454787143959)"><path d="M-1.02 -0.61 C36.55 -0.94, 187.82 -1.87, 225.91 -1.79 M0.64 1.68 C38.55 1.51, 190.43 0.09, 228.16 -0.5" stroke="#1e1e1e" stroke-width="2" fill="none"></path></g><g transform="translate(685.7962617044805 215.95167324846273) rotate(0 113.38684886863558 -0.6579454787143959)"><path d="M27.11 -11.04 C16.57 -9.19, 7.26 -3.04, -1.02 -0.61 M27.11 -11.04 C15.41 -7.87, 4.44 -2.92, -1.02 -0.61" stroke="#1e1e1e" stroke-width="2" fill="none"></path></g><g transform="translate(685.7962617044805 215.95167324846273) rotate(0 113.38684886863558 -0.6579454787143959)"><path d="M27.23 9.48 C16.62 4.37, 7.27 3.56, -1.02 -0.61 M27.23 9.48 C15.65 4.49, 4.63 1.27, -1.02 -0.61" stroke="#1e1e1e" stroke-width="2" fill="none"></path></g><g transform="translate(685.7962617044805 215.95167324846273) rotate(0 113.38684886863558 -0.6579454787143959)"><path d="M200.1 10.1 C208.58 5.3, 218.33 4.32, 228.16 -0.5 M200.1 10.1 C210.93 5.26, 222.33 1.84, 228.16 -0.5" stroke="#1e1e1e" stroke-width="2" fill="none"></path></g><g transform="translate(685.7962617044805 215.95167324846273) rotate(0 113.38684886863558 -0.6579454787143959)"><path d="M199.85 -10.42 C208.45 -8.26, 218.28 -2.28, 228.16 -0.5 M199.85 -10.42 C210.62 -7.09, 222.11 -2.34, 228.16 -0.5" stroke="#1e1e1e" stroke-width="2" fill="none"></path></g></g><mask></mask><g stroke-linecap="round" transform="translate(10 91.0245474052044) rotate(0 46.40150388463874 89.2336613166129)"><path d="M23.2 0 C37.14 1.56, 47.04 -0.9, 69.6 0 M23.2 0 C32.97 -0.2, 42.23 -0.47, 69.6 0 M69.6 0 C83.42 0.71, 93.19 6.23, 92.8 23.2 M69.6 0 C83.86 -0.28, 90.8 9.73, 92.8 23.2 M92.8 23.2 C91.8 58, 94.29 94.47, 92.8 155.27 M92.8 23.2 C93.45 54.2, 93.21 85.04, 92.8 155.27 M92.8 155.27 C93.06 172.65, 86.84 177.97, 69.6 178.47 M92.8 155.27 C94 170.78, 85.26 176.85, 69.6 178.47 M69.6 178.47 C58.96 177.52, 50.7 180.5, 23.2 178.47 M69.6 178.47 C58.07 179.54, 48.71 177.68, 23.2 178.47 M23.2 178.47 C9.7 179.8, 1.86 171.75, 0 155.27 M23.2 178.47 C6.35 179.58, -0.67 168.92, 0 155.27 M0 155.27 C-0.07 104.58, -0.95 56.52, 0 23.2 M0 155.27 C-0.14 109.22, -0.1 64.97, 0 23.2 M0 23.2 C-0.83 5.95, 8.36 1.98, 23.2 0 M0 23.2 C-0.01 6.17, 9.09 2.19, 23.2 0" stroke="#1e1e1e" stroke-width="2" fill="none"></path></g><g transform="translate(33.79564301776355 62.46977578388831) rotate(0 17.20703125 12.5)"><text x="0" y="0" font-family="Segoe UI Emoji" font-size="20px" fill="#1e1e1e" text-anchor="start" style="white-space: pre;" direction="ltr" dominant-baseline="text-before-edge">Fish</text></g><g stroke-linecap="round" transform="translate(24.277385810658018 108.87127966852708) rotate(0 29.149662696760174 17.5)"><path d="M8.75 0 C23.99 1.01, 37.85 -0.44, 49.55 0 M8.75 0 C22.21 0.18, 34.74 0.85, 49.55 0 M49.55 0 C57.37 1.61, 57.35 2.14, 58.3 8.75 M49.55 0 C54.47 0.72, 56.38 4.76, 58.3 8.75 M58.3 8.75 C59.96 15.22, 57.97 21.92, 58.3 26.25 M58.3 8.75 C57.98 13.48, 57.93 18.87, 58.3 26.25 M58.3 26.25 C59.05 32.48, 55.09 35.65, 49.55 35 M58.3 26.25 C57.36 31.63, 57.52 36.21, 49.55 35 M49.55 35 C41.71 33.98, 30.21 35.18, 8.75 35 M49.55 35 C38.75 35.73, 29.65 34.7, 8.75 35 M8.75 35 C2.64 35.96, -1.9 30.23, 0 26.25 M8.75 35 C3.6 33.13, -1.15 32.21, 0 26.25 M0 26.25 C0.92 23.47, -1.14 19.46, 0 8.75 M0 26.25 C0.07 20.01, -0.05 13.64, 0 8.75 M0 8.75 C0.98 4.86, 4.35 -0.24, 8.75 0 M0 8.75 C-0.88 5.14, 2.43 -1.96, 8.75 0" stroke="#1e1e1e" stroke-width="2" fill="none"></path></g><g transform="translate(30.517048660006083 113.87127966852708) rotate(0 22.90999984741211 12.5)"><text x="22.90999984741211" y="0" font-family="Segoe UI Emoji" font-size="20px" fill="#1e1e1e" text-anchor="middle" style="white-space: pre;" direction="ltr" dominant-baseline="text-before-edge">Head</text></g><g stroke-linecap="round" transform="translate(21.30293043343778 159.18886226915285) rotate(0 33.3139002248688 17.500000000000014)"><path d="M8.75 0 C18.98 -1.37, 30.53 1.41, 57.88 0 M8.75 0 C22 -0.64, 34.21 0.27, 57.88 0 M57.88 0 C62.13 -1.1, 65.2 1.11, 66.63 8.75 M57.88 0 C62.34 0.76, 66.6 3.92, 66.63 8.75 M66.63 8.75 C66.93 12.93, 67.06 16.79, 66.63 26.25 M66.63 8.75 C67.07 13.13, 67.01 19.85, 66.63 26.25 M66.63 26.25 C66.73 33.95, 65.48 34.98, 57.88 35 M66.63 26.25 C68.6 32.56, 63.54 36.62, 57.88 35 M57.88 35 C44.66 34.02, 36.04 32.91, 8.75 35 M57.88 35 C39.26 35.86, 20.65 34.45, 8.75 35 M8.75 35 C3.8 33.32, 0.88 31.92, 0 26.25 M8.75 35 C1.13 33.44, 1.45 30.86, 0 26.25 M0 26.25 C-0.42 20.86, -0.44 16.43, 0 8.75 M0 26.25 C-0.08 20.53, 0.26 15.75, 0 8.75 M0 8.75 C-0.16 4.43, 1.84 -1.95, 8.75 0 M0 8.75 C1.78 0.71, 5.01 0.09, 8.75 0" stroke="#1e1e1e" stroke-width="2" fill="none"></path></g><g transform="translate(29.156831573833927 164.18886226915285) rotate(0 25.459999084472656 12.500000000000014)"><text x="25.459999084472656" y="0" font-family="Segoe UI Emoji" font-size="20px" fill="#1e1e1e" text-anchor="middle" style="white-space: pre;" direction="ltr" dominant-baseline="text-before-edge">Body</text></g><g stroke-linecap="round" transform="translate(24.27738581065796 209.15971260645608) rotate(0 33.3139002248688 17.5)"><path d="M8.75 0 C26.79 1.02, 39.41 0.24, 57.88 0 M8.75 0 C26.87 0.84, 45.39 -0.29, 57.88 0 M57.88 0 C65.46 0.87, 65.51 0.93, 66.63 8.75 M57.88 0 C62.34 1.7, 65.44 4.78, 66.63 8.75 M66.63 8.75 C65.3 12.5, 68.04 18.28, 66.63 26.25 M66.63 8.75 C67.29 15.08, 67.01 22.39, 66.63 26.25 M66.63 26.25 C67.34 34.07, 63.42 33.71, 57.88 35 M66.63 26.25 C65.35 34.2, 64.31 34.59, 57.88 35 M57.88 35 C44.8 36.74, 35.11 36.46, 8.75 35 M57.88 35 C39.61 35.45, 21.61 33.91, 8.75 35 M8.75 35 C2.07 34.4, 0.23 30.37, 0 26.25 M8.75 35 C2.04 35.24, -0.09 34, 0 26.25 M0 26.25 C1.33 21.08, -1.71 12.43, 0 8.75 M0 26.25 C0.49 18.61, -0.75 13.31, 0 8.75 M0 8.75 C0.29 4.31, 2.27 0.27, 8.75 0 M0 8.75 C0 1.56, 0.84 -2.23, 8.75 0" stroke="#1e1e1e" stroke-width="2" fill="none"></path></g><g transform="translate(39.57128557776309 214.15971260645608) rotate(0 18.020000457763672 12.5)"><text x="18.020000457763672" y="0" font-family="Segoe UI Emoji" font-size="20px" fill="#1e1e1e" text-anchor="middle" style="white-space: pre;" direction="ltr" dominant-baseline="text-before-edge">Tail</text></g><g stroke-linecap="round"><g transform="translate(190.84688693500146 161.2216943076066) rotate(0 -50.565741412747286 -13.522599017267751)"><path d="M-0.46 -0.41 C-17.42 -4.83, -84.57 -22.71, -101.3 -26.96 M1.5 -1.67 C-15.67 -5.84, -85.18 -21.04, -102.33 -25.38" stroke="#1e1e1e" stroke-width="2" fill="none"></path></g><g transform="translate(190.84688693500146 161.2216943076066) rotate(0 -50.565741412747286 -13.522599017267751)"><path d="M-72.55 -28.96 C-83.33 -28.14, -92.6 -26.1, -102.33 -25.38 M-72.55 -28.96 C-84.88 -26.9, -96.1 -27.28, -102.33 -25.38" stroke="#1e1e1e" stroke-width="2" fill="none"></path></g><g transform="translate(190.84688693500146 161.2216943076066) rotate(0 -50.565741412747286 -13.522599017267751)"><path d="M-77.21 -8.98 C-86.34 -14.91, -94.03 -19.64, -102.33 -25.38 M-77.21 -8.98 C-87.56 -14.7, -96.96 -22.92, -102.33 -25.38" stroke="#1e1e1e" stroke-width="2" fill="none"></path></g></g><mask></mask><g stroke-linecap="round"><g transform="translate(190.84688693500146 179.06842657092918) rotate(0 -49.37595926185912 0.07605058027800737)"><path d="M-1.17 0.13 C-17.25 -0.16, -81.45 -0.95, -97.56 -0.91 M0.41 -0.85 C-15.62 -1.1, -81.46 -0.38, -97.88 0.07" stroke="#1e1e1e" stroke-width="2" fill="none"></path></g><g transform="translate(190.84688693500146 179.06842657092918) rotate(0 -49.37595926185912 0.07605058027800737)"><path d="M-69.87 -10.68 C-75.38 -6.74, -83.17 -5, -97.88 0.07 M-69.87 -10.68 C-78.43 -7.88, -88.18 -3.54, -97.88 0.07" stroke="#1e1e1e" stroke-width="2" fill="none"></path></g><g transform="translate(190.84688693500146 179.06842657092918) rotate(0 -49.37595926185912 0.07605058027800737)"><path d="M-69.52 9.84 C-75.24 9.52, -83.1 7.02, -97.88 0.07 M-69.52 9.84 C-78.25 6.11, -88.12 3.92, -97.88 0.07" stroke="#1e1e1e" stroke-width="2" fill="none"></path></g></g><mask></mask><g stroke-linecap="round"><g transform="translate(199.1753619912186 193.34581238158728) rotate(0 -50.565741412747286 13.675172095263207)"><path d="M-0.03 -0.6 C-16.85 4, -83.43 22.47, -100.31 27.28 M-1.51 1.69 C-18.46 6.52, -84.06 24.66, -100.82 28.78" stroke="#1e1e1e" stroke-width="2" fill="none"></path></g><g transform="translate(199.1753619912186 193.34581238158728) rotate(0 -50.565741412747286 13.675172095263207)"><path d="M-76.17 11.68 C-85.82 19.01, -93.52 23.39, -100.82 28.78 M-76.17 11.68 C-84.85 18.68, -94.25 23.95, -100.82 28.78" stroke="#1e1e1e" stroke-width="2" fill="none"></path></g><g transform="translate(199.1753619912186 193.34581238158728) rotate(0 -50.565741412747286 13.675172095263207)"><path d="M-70.95 31.52 C-82.36 31.94, -91.89 29.39, -100.82 28.78 M-70.95 31.52 C-81.7 31.06, -93.07 28.86, -100.82 28.78" stroke="#1e1e1e" stroke-width="2" fill="none"></path></g></g><mask></mask><g transform="translate(752.9100809640865 186.0192432515479) rotate(0 52.5634765625 12.5)"><text x="0" y="0" font-family="Segoe UI Emoji" font-size="20px" fill="#1e1e1e" text-anchor="start" style="white-space: pre;" direction="ltr" dominant-baseline="text-before-edge">Websockets</text></g></svg>